<svg xmlns="http://www.w3.org/2000/svg" width="11" height="11" viewBox="0 0 11 11" fill="none">
  <path d="M4.9442 0.872583C5.09388 0.411927 5.74558 0.411928 5.89526 0.872583L6.78483 3.61041C6.85177 3.81642 7.04375 3.9559 7.26036 3.9559H10.1391C10.6234 3.9559 10.8248 4.57571 10.433 4.86041L8.10404 6.55248C7.9288 6.6798 7.85547 6.90548 7.9224 7.1115L8.81198 9.84932C8.96165 10.31 8.43441 10.693 8.04256 10.4083L5.71362 8.71627C5.53838 8.58895 5.30108 8.58895 5.12584 8.71627L2.7969 10.4083C2.40505 10.693 1.87781 10.31 2.02748 9.84932L2.91706 7.1115C2.98399 6.90548 2.91067 6.6798 2.73542 6.55248L0.406487 4.86041C0.0146301 4.57571 0.216018 3.9559 0.70038 3.9559H3.5791C3.79571 3.9559 3.98769 3.81642 4.05463 3.61041L4.9442 0.872583Z" fill="#6B7684"/>
</svg>