<?xml version="1.0" standalone="no"?>
<!DOCTYPE svg PUBLIC "-//W3C//DTD SVG 20010904//EN"
 "http://www.w3.org/TR/2001/REC-SVG-20010904/DTD/svg10.dtd">
<svg version="1.0" xmlns="http://www.w3.org/2000/svg"
 width="916.000000pt" height="797.000000pt" viewBox="0 0 916.000000 797.000000"
 preserveAspectRatio="xMidYMid meet">

<g transform="translate(0.000000,797.000000) scale(0.100000,-0.100000)"
fill="#000000" stroke="none">
<path d="M6260 6740 c-65 -14 -148 -49 -205 -86 -27 -18 -899 -883 -1937
-1921 l-1887 -1888 -177 -465 c-223 -588 -224 -589 -224 -625 0 -16 9 -44 20
-62 39 -65 18 -63 670 -63 l591 0 24 25 c30 29 32 64 6 96 l-19 24 -366 5
-365 5 329 125 329 124 218 218 218 218 263 0 c289 0 308 -3 337 -60 8 -16 15
-46 15 -67 0 -52 39 -131 84 -171 66 -57 94 -64 286 -69 162 -4 178 -7 211
-28 44 -28 69 -78 69 -138 0 -49 -26 -96 -73 -131 -28 -21 -39 -21 -652 -26
-595 -5 -624 -6 -644 -24 -29 -26 -27 -71 4 -102 l25 -25 632 3 633 3 52 27
c113 60 173 159 173 287 0 120 -68 223 -184 277 -46 22 -65 24 -201 24 -82 0
-167 5 -188 11 -42 11 -77 56 -77 100 0 87 -63 189 -144 232 -38 20 -58 22
-255 25 l-214 3 1605 1607 c1568 1569 1607 1609 1642 1682 112 232 73 487
-103 668 -59 60 -153 119 -230 143 -75 23 -223 33 -291 19z m202 -151 c120
-25 244 -123 294 -234 80 -174 44 -351 -101 -503 l-64 -67 -303 302 -303 303
58 58 c126 127 264 173 419 141z m-277 -609 l300 -300 -60 -60 -60 -60 -302
302 -303 303 57 57 c32 32 60 58 63 58 3 0 140 -135 305 -300z m-1063 -733
c-613 -613 -672 -675 -672 -705 0 -19 8 -40 20 -52 12 -12 33 -20 52 -20 30 0
92 59 705 672 l673 673 57 -58 58 -57 -1625 -1625 -1625 -1625 -57 57 -58 58
850 850 c921 921 880 876 825 930 -54 55 -9 96 -930 -825 l-850 -850 -70 70
-70 70 1625 1625 1625 1625 70 -70 70 -70 -673 -673z m1071 275 l67 -67 -1625
-1625 -1625 -1625 -70 70 -70 70 1622 1622 c893 893 1625 1623 1628 1623 3 0
36 -30 73 -68z m-3589 -3121 c147 -147 264 -271 260 -274 -14 -8 -433 -167
-441 -167 -11 0 -263 253 -263 264 0 15 164 446 170 446 3 0 126 -121 274
-269z m-419 -421 c43 -44 77 -81 74 -83 -11 -9 -252 -97 -256 -94 -5 6 89 257
96 257 4 0 42 -36 86 -80z"/>
</g>
</svg>
