<?xml version="1.0" standalone="no"?>
<!DOCTYPE svg PUBLIC "-//W3C//DTD SVG 20010904//EN"
 "http://www.w3.org/TR/2001/REC-SVG-20010904/DTD/svg10.dtd">
<svg version="1.0" xmlns="http://www.w3.org/2000/svg"
 width="841.000000pt" height="876.000000pt" viewBox="0 0 841.000000 876.000000"
 preserveAspectRatio="xMidYMid meet">

<g transform="translate(0.000000,876.000000) scale(0.100000,-0.100000)"
fill="#000000" stroke="none">
<path d="M4249 7973 c-36 -44 -42 -70 -35 -160 17 -205 35 -299 65 -335 20
-23 41 -11 41 22 0 16 5 32 11 36 6 3 9 16 6 28 -3 11 -10 39 -16 60 -16 64
-3 76 78 76 49 0 72 4 81 15 18 22 25 10 25 -45 0 -46 15 -86 45 -123 17 -21
86 -57 110 -57 23 0 63 48 84 100 10 25 21 52 26 60 4 8 8 54 9 102 2 103 -3
108 -98 108 -56 0 -64 -3 -101 -36 -39 -35 -40 -36 -137 -38 -54 -2 -108 -7
-120 -11 -27 -9 -34 12 -38 109 -1 40 -6 80 -12 90 -9 16 -10 16 -24 -1z m276
-212 c3 -5 1 -12 -5 -16 -5 -3 -10 1 -10 9 0 18 6 21 15 7z m183 -25 c2 -16
-1 -39 -7 -50 -5 -12 -11 -30 -13 -41 -4 -22 -44 -46 -65 -38 -20 8 -45 60
-33 68 6 3 10 13 10 22 0 27 52 73 80 71 19 -2 26 -9 28 -32z"/>
<path d="M4840 7915 c-8 -9 -10 -28 -6 -50 3 -19 9 -52 12 -72 4 -21 11 -43
16 -50 6 -7 6 -19 -1 -31 -11 -21 6 -132 21 -132 4 0 11 -18 14 -40 4 -22 11
-43 15 -46 5 -3 9 -13 9 -23 0 -16 37 -41 60 -41 5 0 14 17 19 38 8 29 6 52
-8 104 -10 37 -16 70 -13 73 3 3 39 5 81 5 68 0 79 3 99 25 35 37 25 56 -37
72 -43 11 -66 11 -108 3 -60 -13 -73 -8 -73 24 0 12 -4 26 -8 32 -5 5 -14 29
-21 54 -20 69 -44 88 -71 55z"/>
<path d="M3895 7862 c-34 -30 -46 -61 -51 -130 -4 -56 -1 -75 18 -112 15 -29
31 -46 45 -48 12 -2 27 -10 33 -18 14 -16 80 -19 80 -4 0 6 7 10 15 10 17 0
20 -25 5 -35 -15 -9 -12 -82 5 -114 8 -16 12 -31 8 -34 -11 -12 18 -64 43 -78
18 -9 30 -10 42 -3 9 6 26 8 37 4 11 -4 31 -3 45 1 14 5 45 10 70 12 37 2 52
9 78 36 39 41 41 67 7 75 -29 7 -105 -3 -122 -16 -6 -5 -40 -8 -75 -6 -71 3
-65 -5 -69 105 -1 41 -5 52 -21 56 -15 4 -17 9 -9 24 40 73 45 94 32 157 -15
78 -36 106 -91 122 -61 18 -101 17 -125 -4z m113 -92 c37 -18 42 -24 42 -55 0
-38 -33 -85 -60 -85 -9 0 -31 13 -50 29 -31 26 -34 32 -22 50 6 11 12 26 12
33 0 9 28 48 35 48 1 0 20 -9 43 -20z"/>
<path d="M2513 7782 c-20 -13 -25 -55 -26 -222 -1 -181 4 -200 49 -200 12 0
26 5 29 10 3 6 28 10 54 10 26 0 51 4 57 9 5 6 38 11 72 13 l64 3 13 40 c19
54 6 68 -54 62 -25 -3 -66 -10 -91 -16 -25 -6 -62 -14 -82 -18 -35 -5 -38 -4
-38 18 3 230 0 274 -18 286 -10 6 -23 8 -29 5z"/>
<path d="M2878 7756 c-11 -11 -14 -45 -13 -152 1 -168 18 -258 53 -273 31 -15
32 -14 32 13 0 14 5 28 11 32 7 4 9 24 6 49 l-4 43 65 7 c89 9 99 14 121 59
18 34 18 40 5 53 -11 11 -27 13 -62 9 -26 -4 -68 -9 -93 -12 l-46 -6 -7 46
c-4 25 -4 60 -1 78 3 18 2 38 -2 44 -14 20 -50 26 -65 10z"/>
<path d="M5595 7610 c-24 -27 -13 -50 25 -50 23 0 30 4 30 19 0 11 5 23 10 26
16 10 1 25 -24 25 -13 0 -31 -9 -41 -20z"/>
<path d="M5333 7574 c-7 -20 11 -38 31 -31 9 4 12 13 9 26 -6 25 -31 28 -40 5z"/>
<path d="M3610 6860 c-8 -5 -31 -10 -50 -10 -74 0 -208 -83 -340 -210 -26 -25
-67 -64 -92 -86 l-46 -42 -62 59 c-34 33 -67 59 -74 59 -8 0 -19 7 -26 15 -7
9 -28 22 -46 30 -19 8 -51 23 -71 32 -79 35 -139 53 -175 53 -20 0 -40 5 -43
10 -8 13 -238 13 -279 1 -17 -5 -51 -15 -76 -22 -68 -19 -181 -77 -218 -112
-84 -81 -125 -212 -124 -402 0 -99 4 -128 21 -166 28 -61 89 -129 164 -181 60
-41 76 -50 142 -78 17 -7 38 -16 47 -21 10 -5 69 -9 132 -9 63 0 117 -3 119
-7 3 -5 -8 -35 -23 -68 -47 -104 -61 -157 -92 -350 -17 -103 -17 -1066 0
-1200 6 -49 14 -121 16 -160 3 -38 10 -95 15 -125 5 -30 7 -58 5 -62 -3 -4 2
-21 11 -37 8 -17 15 -43 15 -60 0 -35 46 -185 68 -221 53 -87 86 -132 114
-154 l32 -25 -27 -6 c-15 -4 -40 -3 -55 3 -58 22 -97 22 -157 0 -44 -16 -95
-24 -190 -29 -195 -11 -232 -19 -270 -61 -34 -37 -70 -135 -81 -223 -17 -137
105 -281 306 -362 14 -6 45 -19 70 -29 33 -14 66 -18 125 -17 60 1 84 -2 97
-14 10 -9 31 -57 47 -107 33 -105 36 -148 31 -433 -1 -62 1 -117 5 -122 3 -6
11 -57 16 -113 15 -160 20 -192 35 -213 8 -11 14 -34 14 -53 0 -18 4 -41 9
-50 5 -10 11 -45 13 -80 3 -34 8 -65 11 -69 4 -3 7 -13 7 -21 0 -8 11 -36 25
-64 14 -27 25 -59 25 -70 0 -12 16 -45 35 -74 19 -29 35 -55 35 -58 0 -3 -10
-6 -23 -6 -12 0 -32 -6 -43 -14 -36 -26 -322 -25 -414 1 -59 16 -149 13 -206
-7 -56 -20 -74 -101 -50 -225 18 -95 93 -208 172 -257 35 -22 56 -28 103 -28
33 0 63 5 66 10 10 17 24 11 52 -20 14 -16 36 -30 47 -30 41 1 119 27 131 43
16 23 31 21 68 -5 22 -16 46 -23 78 -23 39 0 52 6 88 37 22 21 46 38 51 38 6
0 10 6 10 13 0 8 7 28 16 46 12 24 19 30 27 22 36 -36 86 8 97 82 l5 41 35
-30 c19 -17 67 -43 105 -58 39 -15 78 -32 87 -37 10 -5 28 -9 40 -9 18 0 125
-52 129 -63 0 -1 5 -39 10 -84 31 -283 39 -320 79 -378 39 -57 85 -91 134 -98
64 -10 159 52 246 162 31 39 51 39 71 -2 9 -17 25 -37 37 -43 12 -6 30 -18 40
-27 10 -10 28 -17 39 -17 11 0 33 -6 48 -14 29 -15 75 -8 104 18 9 8 24 16 34
17 10 2 28 22 40 44 12 22 25 41 30 43 4 2 7 12 7 22 0 10 6 31 14 47 24 48
38 131 35 206 l-4 72 95 1 c53 0 105 6 117 12 12 7 39 12 60 12 97 1 239 54
324 121 20 16 42 29 47 29 22 0 62 24 62 37 0 7 5 13 11 13 6 0 30 21 53 47
22 27 71 80 107 119 68 72 109 140 109 180 0 13 5 26 10 29 6 3 10 30 10 60 0
30 5 57 10 60 6 3 10 14 10 24 0 9 5 22 12 29 18 18 38 83 38 124 0 20 4 39 9
42 9 6 15 32 31 151 6 39 11 281 13 540 l2 470 30 2 c167 14 271 33 330 58
160 69 161 70 203 155 24 49 26 67 27 166 l0 112 -48 71 c-71 102 -109 141
-153 153 -33 8 -155 13 -254 9 -14 -1 -87 2 -163 7 -103 5 -140 11 -147 22 -9
14 2 44 20 55 6 3 10 15 10 26 0 10 5 19 10 19 6 0 10 9 10 19 0 11 4 22 9 25
5 3 11 18 14 33 3 16 17 60 32 98 15 39 31 90 35 115 5 25 16 83 25 130 9 47
19 123 22 170 2 47 8 89 13 95 11 13 16 443 7 567 -4 54 -12 109 -17 123 -6
15 -12 57 -14 94 -3 37 -14 114 -26 172 -12 57 -30 156 -41 219 -10 63 -23
135 -28 160 -6 25 -10 69 -11 97 0 52 0 53 44 72 24 11 90 28 147 38 70 11
115 24 138 40 18 13 48 23 66 23 18 0 38 7 45 15 7 8 16 15 20 15 5 0 22 12
39 28 17 15 38 34 48 43 38 33 107 118 131 160 34 61 44 95 47 164 3 81 -22
116 -145 206 -68 50 -342 193 -435 228 -128 48 -228 61 -296 38 -82 -29 -118
-47 -145 -74 -27 -27 -27 -27 -58 -9 -17 10 -44 25 -61 34 -16 10 -32 20 -35
23 -9 11 -81 39 -101 39 -11 0 -27 4 -37 9 -25 13 -146 41 -176 41 -13 0 -28
5 -31 10 -3 6 -26 10 -51 10 -24 0 -44 5 -44 10 0 6 -22 10 -49 10 -28 0 -53
5 -56 10 -3 6 -26 10 -51 10 -25 0 -60 7 -79 15 -19 7 -59 15 -88 16 -28 1
-56 5 -62 10 -25 18 -550 36 -575 19z m524 -108 c6 -5 38 -10 70 -11 33 -1 65
-5 70 -10 6 -5 31 -11 56 -15 25 -4 88 -14 140 -22 52 -8 110 -17 129 -19 18
-3 38 -8 44 -12 6 -4 32 -8 57 -9 25 -2 61 -7 80 -13 19 -5 67 -18 105 -27 39
-9 74 -21 80 -26 5 -4 18 -8 30 -8 12 0 25 -4 30 -9 6 -5 21 -11 35 -13 20 -2
24 -8 22 -28 -2 -14 -10 -32 -18 -41 -21 -24 -17 -36 18 -53 41 -21 55 -20 63
4 3 11 10 20 15 20 5 0 15 6 22 13 7 7 37 29 65 49 42 30 65 39 114 44 62 6
185 -11 195 -27 3 -5 16 -9 30 -9 13 0 41 -10 62 -23 20 -12 48 -28 62 -34 77
-34 103 -49 190 -104 52 -33 102 -62 110 -66 8 -3 32 -22 53 -41 29 -29 37
-43 37 -72 0 -56 -44 -136 -111 -199 -62 -60 -114 -93 -212 -135 -21 -9 -55
-16 -77 -16 -21 0 -42 -4 -45 -10 -3 -5 -28 -10 -55 -10 -27 0 -52 -4 -55 -10
-3 -5 -13 -10 -21 -10 -8 0 -32 -11 -54 -25 -22 -14 -49 -25 -60 -25 -13 0
-26 -13 -39 -37 -18 -36 -18 -44 -5 -148 7 -60 20 -146 29 -190 22 -106 30
-154 45 -250 6 -44 14 -83 16 -87 2 -4 9 -37 14 -75 6 -37 15 -90 20 -118 17
-78 19 -100 23 -270 4 -161 -5 -372 -21 -520 -16 -139 -79 -403 -110 -461 -6
-11 -22 -44 -37 -74 -34 -72 -44 -88 -84 -138 -34 -44 -132 -102 -171 -102
-12 0 -29 -4 -38 -9 -9 -5 -80 -16 -157 -25 -77 -10 -149 -21 -160 -26 -19 -8
-52 -14 -155 -26 -25 -3 -54 -9 -65 -14 -11 -5 -51 -11 -90 -15 -38 -3 -95 -9
-125 -13 -64 -8 -155 -7 -255 1 -38 4 -108 9 -155 12 -47 4 -110 10 -140 14
-30 5 -113 9 -183 10 -71 1 -134 4 -141 7 -7 3 -69 9 -137 14 -132 9 -233 25
-261 40 -10 6 -29 10 -42 10 -14 0 -28 4 -31 10 -3 5 -15 10 -25 10 -32 0
-169 91 -235 156 -63 62 -107 139 -121 210 -5 22 -7 43 -6 48 2 4 -2 13 -7 20
-5 6 -13 35 -17 64 -4 29 -11 55 -15 58 -5 3 -9 36 -9 74 0 38 -5 81 -11 97
-35 90 -46 1142 -14 1373 9 63 18 133 21 155 3 22 14 59 25 82 10 24 19 45 19
48 0 2 11 28 25 57 13 29 30 72 38 95 14 40 14 41 -12 54 -17 9 -75 14 -173
15 -139 1 -150 3 -205 29 -70 34 -160 94 -190 127 -13 13 -35 53 -49 88 -24
59 -25 72 -19 155 4 49 11 106 15 125 5 19 11 47 14 61 7 35 93 122 136 138
19 7 49 19 65 26 80 35 251 52 343 35 102 -19 147 -31 156 -40 6 -6 18 -10 28
-10 10 0 26 -4 36 -9 9 -5 44 -22 76 -37 73 -36 156 -112 156 -143 0 -24 53
-81 74 -81 7 0 19 12 27 28 34 65 86 126 178 206 54 47 101 86 104 86 3 0 29
16 58 35 30 19 63 35 75 35 12 0 37 7 55 15 28 12 77 14 293 10 142 -2 263 -8
270 -13z m1291 -3482 c6 -4 118 -8 250 -9 303 -2 287 5 372 -155 55 -104 40
-221 -33 -263 -22 -13 -48 -23 -60 -23 -11 0 -24 -3 -28 -7 -11 -11 -80 -33
-106 -33 -14 0 -47 -7 -74 -15 -30 -9 -90 -15 -152 -15 l-102 0 -15 -37 c-8
-21 -12 -42 -9 -47 3 -5 4 -257 3 -560 l-2 -551 -24 -18 c-21 -16 -25 -27 -25
-73 0 -36 -7 -66 -21 -91 -24 -42 -49 -148 -49 -204 0 -57 -19 -90 -102 -178
-42 -45 -78 -88 -82 -96 -3 -8 -33 -31 -66 -52 -34 -21 -87 -57 -118 -80 -32
-23 -66 -43 -77 -43 -12 0 -25 -4 -30 -9 -30 -29 -171 -51 -359 -57 -99 -4
-142 -9 -152 -19 -11 -10 -14 -48 -14 -153 0 -98 -4 -149 -14 -169 -7 -15 -22
-46 -32 -68 -23 -49 -83 -83 -117 -68 -12 6 -38 17 -57 25 -27 12 -38 25 -48
57 -12 40 -29 185 -34 286 l-3 50 -42 3 c-58 4 -65 -13 -64 -149 1 -101 -1
-113 -25 -157 -45 -80 -150 -172 -196 -172 -30 0 -38 7 -71 58 -22 34 -31 65
-43 160 -9 64 -20 125 -25 134 -5 10 -9 51 -9 92 0 90 -5 106 -35 106 -12 0
-28 7 -35 15 -7 8 -19 15 -27 15 -8 0 -33 9 -55 20 -23 11 -48 20 -55 20 -7 0
-21 4 -31 9 -9 5 -42 17 -72 27 -30 10 -65 28 -77 40 -12 13 -38 35 -58 50
-19 14 -35 30 -35 35 0 5 -25 35 -55 66 -30 31 -57 65 -60 74 -4 10 -29 35
-56 55 -52 38 -95 106 -111 177 -4 20 -13 56 -19 80 -6 23 -14 67 -19 97 -8
52 -16 84 -61 240 -19 67 -34 335 -30 538 1 51 -2 107 -8 125 -5 17 -17 68
-27 112 -9 44 -23 93 -32 109 -8 16 -18 43 -22 60 -9 45 -39 56 -157 56 -57 0
-105 4 -108 10 -3 6 -17 10 -31 10 -37 0 -173 73 -221 119 -51 49 -93 128 -93
175 0 53 44 144 72 150 13 3 82 7 154 8 117 3 133 6 158 26 16 12 37 22 47 22
10 0 21 5 24 10 10 15 33 12 63 -9 28 -20 26 -20 336 -36 54 -3 108 -11 120
-17 66 -35 270 -61 581 -73 66 -3 158 -10 205 -16 47 -7 132 -14 190 -16 57
-2 109 -8 115 -12 24 -18 250 -12 370 10 66 12 143 24 170 26 28 2 59 8 70 12
11 5 52 14 90 20 39 7 108 19 155 27 47 8 94 17 105 18 79 11 119 23 179 53
38 18 76 42 83 53 7 10 23 21 36 23 27 6 108 -3 122 -13z m-2500 -2354 c10
-17 40 -55 67 -84 41 -43 48 -55 38 -67 -17 -21 -23 -19 -43 15 -33 55 -77 33
-77 -38 0 -46 -19 -89 -59 -134 -32 -36 -75 -37 -135 -3 -60 33 -80 32 -118
-10 -23 -26 -39 -35 -58 -33 -22 3 -25 7 -22 40 2 32 -1 39 -27 53 -16 8 -32
11 -35 6 -3 -5 -31 -20 -61 -35 l-56 -26 -39 20 c-52 27 -110 78 -110 98 0 8
-7 23 -16 33 -18 20 -41 137 -31 162 8 22 94 23 207 1 113 -21 295 -13 348 15
11 6 40 11 64 12 24 0 59 6 78 13 41 14 60 6 85 -38z"/>
<path d="M3291 5709 c-15 -17 -34 -22 -97 -25 -90 -4 -139 -24 -163 -65 -9
-16 -19 -29 -23 -29 -5 0 -8 -6 -8 -14 0 -8 -8 -21 -18 -28 -23 -17 -52 -63
-52 -83 0 -22 23 -18 49 9 12 13 37 31 55 41 33 18 33 18 76 -11 53 -35 57
-47 31 -73 -16 -16 -34 -21 -74 -21 -29 0 -57 4 -62 9 -6 4 -22 11 -37 15 -33
8 -43 -15 -33 -75 23 -136 186 -199 305 -117 69 47 100 96 100 154 0 26 4 61
9 78 29 96 35 123 35 171 0 30 -6 61 -13 69 -19 22 -57 20 -80 -5z m-61 -360
c0 -25 -6 -32 -34 -44 -35 -15 -66 -11 -66 6 0 6 16 19 35 30 19 12 35 25 35
30 0 5 7 9 15 9 10 0 15 -10 15 -31z"/>
<path d="M4680 5690 c-8 -5 -22 -11 -31 -14 -9 -2 -30 -21 -45 -42 -28 -36
-29 -40 -26 -142 5 -149 32 -201 134 -251 38 -19 151 -11 177 13 24 22 27 36
7 36 -8 0 -26 14 -41 32 l-27 32 22 18 c25 21 38 22 75 8 23 -9 26 -14 20 -42
-7 -29 -6 -30 16 -25 13 4 27 7 30 7 12 0 49 99 49 130 0 64 -56 140 -104 140
-9 0 -16 5 -16 10 0 6 -6 10 -14 10 -8 0 -28 11 -44 25 -17 14 -37 25 -46 25
-9 0 -24 9 -33 20 -18 21 -75 27 -103 10z m240 -210 c5 -9 6 -30 1 -46 -7 -26
-11 -29 -45 -26 -34 3 -94 40 -70 43 5 1 14 2 21 3 6 0 21 13 32 28 23 29 45
28 61 -2z m-153 -18 l22 -17 -29 -47 c-34 -54 -75 -73 -96 -44 -10 15 -9 24 8
54 25 46 48 72 62 72 6 0 21 -8 33 -18z"/>
<path d="M3868 3847 c-56 -90 -47 -105 65 -109 72 -3 78 -1 94 22 27 38 34 80
14 87 -9 2 -27 10 -41 17 -14 8 -43 16 -65 19 -39 6 -41 5 -67 -36z"/>
<path d="M3985 3614 c-14 -15 -25 -37 -25 -48 0 -22 -45 -70 -87 -93 -13 -7
-56 -13 -98 -13 -70 0 -81 3 -130 35 -30 19 -55 38 -55 43 0 4 -13 13 -30 19
-32 12 -30 13 -44 -49 -5 -24 0 -32 47 -67 64 -49 114 -71 164 -72 58 -3 163
12 163 22 0 5 8 9 18 9 10 0 33 13 51 29 28 25 36 28 52 18 11 -7 19 -15 19
-19 0 -5 9 -8 20 -8 11 0 20 -4 20 -8 0 -15 102 -35 179 -35 79 -1 121 13 121
38 0 9 6 24 12 35 11 17 9 23 -9 42 -20 19 -25 20 -46 9 -36 -19 -176 -18
-219 2 -47 22 -59 38 -56 75 2 29 -15 62 -34 62 -5 0 -20 -12 -33 -26z"/>
</g>
</svg>
