<svg width="150" height="300" viewBox="0 0 150 300" fill="none" xmlns="http://www.w3.org/2000/svg">
<rect width="150" height="300" fill="#D9D9D9"/>
<path d="M62.0002 102.333V115.333M88.0002 102.333V115.333M62.0002 184.667V197.667M88.0002 184.667V197.667M109.667 137H122.667M109.667 158.667H122.667M27.3335 137H40.3335M27.3335 158.667H40.3335M49.0002 115.333H101C105.787 115.333 109.667 119.214 109.667 124V176C109.667 180.787 105.787 184.667 101 184.667H49.0002C44.2137 184.667 40.3335 180.787 40.3335 176V124C40.3335 119.214 44.2137 115.333 49.0002 115.333ZM62.0002 137H88.0002V163H62.0002V137Z" stroke="#1E1E1E" stroke-width="4" stroke-linecap="round" stroke-linejoin="round"/>
</svg>
