<svg width="150" height="300" viewBox="0 0 150 300" fill="none" xmlns="http://www.w3.org/2000/svg">
<rect width="150" height="300" fill="#D9D9D9"/>
<path d="M74.9998 106.667H59.8332C55.8107 106.667 51.953 108.265 49.1087 111.109C46.2644 113.953 44.6665 117.811 44.6665 121.833C44.6665 125.856 46.2644 129.714 49.1087 132.558C51.953 135.402 55.8107 137 59.8332 137M74.9998 106.667V137M74.9998 106.667H90.1665C92.1582 106.667 94.1304 107.059 95.9705 107.821C97.8106 108.583 99.4826 109.701 100.891 111.109C102.299 112.517 103.416 114.189 104.179 116.029C104.941 117.869 105.333 119.842 105.333 121.833C105.333 123.825 104.941 125.797 104.179 127.637C103.416 129.478 102.299 131.15 100.891 132.558C99.4826 133.966 97.8106 135.083 95.9705 135.846C94.1304 136.608 92.1582 137 90.1665 137M74.9998 137H59.8332M74.9998 137H90.1665M74.9998 137V167.333M59.8332 137C55.8107 137 51.953 138.598 49.1087 141.442C46.2644 144.287 44.6665 148.144 44.6665 152.167C44.6665 156.189 46.2644 160.047 49.1087 162.891C51.953 165.736 55.8107 167.333 59.8332 167.333M90.1665 137C88.1748 137 86.2026 137.392 84.3625 138.155C82.5224 138.917 80.8504 140.034 79.4421 141.442C78.0337 142.851 76.9165 144.523 76.1543 146.363C75.3921 148.203 74.9998 150.175 74.9998 152.167C74.9998 154.158 75.3921 156.131 76.1543 157.971C76.9165 159.811 78.0337 161.483 79.4421 162.891C80.8504 164.3 82.5224 165.417 84.3625 166.179C86.2026 166.941 88.1748 167.333 90.1665 167.333C92.1582 167.333 94.1304 166.941 95.9705 166.179C97.8106 165.417 99.4826 164.3 100.891 162.891C102.299 161.483 103.416 159.811 104.179 157.971C104.941 156.131 105.333 154.158 105.333 152.167C105.333 150.175 104.941 148.203 104.179 146.363C103.416 144.523 102.299 142.851 100.891 141.442C99.4826 140.034 97.8106 138.917 95.9705 138.155C94.1304 137.392 92.1582 137 90.1665 137ZM59.8332 167.333C55.8107 167.333 51.953 168.931 49.1087 171.776C46.2644 174.62 44.6665 178.478 44.6665 182.5C44.6665 186.523 46.2644 190.38 49.1087 193.225C51.953 196.069 55.8107 197.667 59.8332 197.667C63.8556 197.667 67.7133 196.069 70.5576 193.225C73.4019 190.38 74.9998 186.523 74.9998 182.5V167.333M59.8332 167.333H74.9998" stroke="#1E1E1E" stroke-width="4" stroke-linecap="round" stroke-linejoin="round"/>
</svg>
