<svg width="150" height="300" viewBox="0 0 150 300" fill="none" xmlns="http://www.w3.org/2000/svg">
<rect width="150" height="300" fill="#D9D9D9"/>
<path d="M128.25 120.25C128.25 127.292 104.409 133 75 133C45.5908 133 21.75 127.292 21.75 120.25M128.25 120.25C128.25 113.208 104.409 107.5 75 107.5C45.5908 107.5 21.75 113.208 21.75 120.25M128.25 120.25V179.75C128.25 186.805 104.583 192.5 75 192.5C45.4167 192.5 21.75 186.805 21.75 179.75V120.25M128.25 150C128.25 157.055 104.583 162.75 75 162.75C45.4167 162.75 21.75 157.055 21.75 150" stroke="#1E1E1E" stroke-width="4" stroke-linecap="round" stroke-linejoin="round"/>
</svg>
