<svg width="150" height="300" viewBox="0 0 150 300" fill="none" xmlns="http://www.w3.org/2000/svg">
<rect width="150" height="300" fill="#D9D9D9"/>
<path d="M55.5 115.243L75 126.51L94.5 115.243M55.5 182.757V160.267L36 149M114 149L94.5 160.267V182.757M37.17 127.16L75 149.043L112.83 127.16M75 192.68V149M114 166.333V131.667C113.998 130.147 113.597 128.654 112.837 127.338C112.076 126.023 110.983 124.93 109.667 124.17L79.3333 106.837C78.0158 106.076 76.5213 105.676 75 105.676C73.4787 105.676 71.9842 106.076 70.6667 106.837L40.3333 124.17C39.0171 124.93 37.9239 126.023 37.1633 127.338C36.4028 128.654 36.0016 130.147 36 131.667V166.333C36.0016 167.853 36.4028 169.346 37.1633 170.662C37.9239 171.977 39.0171 173.07 40.3333 173.83L70.6667 191.163C71.9842 191.924 73.4787 192.324 75 192.324C76.5213 192.324 78.0158 191.924 79.3333 191.163L109.667 173.83C110.983 173.07 112.076 171.977 112.837 170.662C113.597 169.346 113.998 167.853 114 166.333Z" stroke="#1E1E1E" stroke-width="4" stroke-linecap="round" stroke-linejoin="round"/>
</svg>
